<?xml version="1.0" encoding="UTF-8" standalone="no"?>
<svg width="310px" height="288px" viewBox="0 0 310 288" version="1.1" xmlns="http://www.w3.org/2000/svg" xmlns:xlink="http://www.w3.org/1999/xlink" xmlns:sketch="http://www.bohemiancoding.com/sketch/ns">
    <!-- Generator: Sketch 3.2.2 (9983) - http://www.bohemiancoding.com/sketch -->
    <title>Untitled</title>
    <desc>Created with Sketch.</desc>
    <defs>
        <filter x="-50%" y="-50%" width="200%" height="200%" filterUnits="objectBoundingBox" id="filter-1">
            <feMorphology radius="5" in="SourceAlpha" operator="dilate" result="shadowSpreadInner1"></feMorphology>
            <feOffset dx="0" dy="5" in="shadowSpreadInner1" result="shadowOffsetInner1"></feOffset>
            <feGaussianBlur stdDeviation="0" in="shadowOffsetInner1" result="shadowBlurInner1"></feGaussianBlur>
            <feComposite in="shadowBlurInner1" in2="SourceAlpha" operator="arithmetic" k2="-1" k3="1" result="shadowInnerInner1"></feComposite>
            <feColorMatrix values="0 0 0 0 1   0 0 0 0 1   0 0 0 0 1  0 0 0 0.7 0" in="shadowInnerInner1" type="matrix" result="shadowMatrixInner1"></feColorMatrix>
            <feMerge>
                <feMergeNode in="SourceGraphic"></feMergeNode>
                <feMergeNode in="shadowMatrixInner1"></feMergeNode>
            </feMerge>
        </filter>
        <filter x="-50%" y="-50%" width="200%" height="200%" filterUnits="objectBoundingBox" id="filter-2">
            <feMorphology radius="3" in="SourceAlpha" operator="dilate" result="shadowSpreadInner1"></feMorphology>
            <feOffset dx="0" dy="5" in="shadowSpreadInner1" result="shadowOffsetInner1"></feOffset>
            <feGaussianBlur stdDeviation="0" in="shadowOffsetInner1" result="shadowBlurInner1"></feGaussianBlur>
            <feComposite in="shadowBlurInner1" in2="SourceAlpha" operator="arithmetic" k2="-1" k3="1" result="shadowInnerInner1"></feComposite>
            <feColorMatrix values="0 0 0 0 1   0 0 0 0 1   0 0 0 0 1  0 0 0 0.7 0" in="shadowInnerInner1" type="matrix" result="shadowMatrixInner1"></feColorMatrix>
            <feMerge>
                <feMergeNode in="SourceGraphic"></feMergeNode>
                <feMergeNode in="shadowMatrixInner1"></feMergeNode>
            </feMerge>
        </filter>
    </defs>
    <g id="Page-1" stroke="none" stroke-width="1" fill="none" fill-rule="evenodd" sketch:type="MSPage">
        <g id="checkmark-logo" sketch:type="MSLayerGroup" transform="translate(3.000000, 2.000000)">
            <ellipse id="Oval-3" stroke="#000000" stroke-width="5" fill="#F2644A" filter="url(#filter-1)" sketch:type="MSShapeGroup" cx="152" cy="189" rx="152" ry="37.5"></ellipse>
            <rect id="Rectangle-7" fill="#000000" sketch:type="MSShapeGroup" x="146" y="260.5" width="6" height="25" rx="8"></rect>
            <path d="M184.486813,258.170043 C183.785566,256.666216 184.437453,254.878061 185.936018,254.179269 L185.936018,254.179269 C187.437638,253.479052 189.220461,254.124176 189.924659,255.634333 L193.513187,263.329957 C194.214434,264.833784 193.562547,266.621939 192.063982,267.320731 L192.063982,267.320731 C190.562362,268.020948 188.779539,267.375824 188.075341,265.865667 L184.486813,258.170043 L184.486813,258.170043 Z" id="Rectangle-8" fill="#000000" sketch:type="MSShapeGroup"></path>
            <path d="M108.075341,255.634333 C108.776587,254.130506 110.565418,253.480476 112.063982,254.179269 L112.063982,254.179269 C113.565602,254.879485 114.217386,256.659885 113.513187,258.170043 L109.924659,265.865667 C109.223413,267.369494 107.434582,268.019524 105.936018,267.320731 L105.936018,267.320731 C104.434398,266.620515 103.782614,264.840115 104.486813,263.329957 L108.075341,255.634333 L108.075341,255.634333 Z" id="Rectangle-9" fill="#000000" sketch:type="MSShapeGroup"></path>
            <path d="M149.183258,187.388947 C144.992495,187.388947 140.930021,185.453816 137.106515,181.636329 L68.2155052,112.803447 C60.5458557,105.140829 60.5433402,96.3447763 68.2155052,88.6771316 L86.4375258,70.4818684 C94.0719588,62.8443816 102.944,62.8418684 110.588495,70.4818684 L149.947959,109.662 L255.728247,6.21539474 C263.297278,-1.34921053 272.19699,-1.38439474 279.846515,6.25057895 L298.066021,24.4483553 C305.728124,32.116 305.728124,40.9095395 298.066021,48.5771842 L161.214722,181.679053 C157.43901,185.456329 153.376536,187.388947 149.183258,187.388947 L149.183258,187.388947 Z" id="Shape" stroke="#000000" stroke-width="5" fill="#A0D2E5" filter="url(#filter-2)" sketch:type="MSShapeGroup"></path>
        </g>
    </g>
</svg>